<svg width="72" height="12" viewBox="0 0 72 12" fill="none" xmlns="http://www.w3.org/2000/svg">
<path d="M0 11.8011H2.77883L2.74275 7.07735L8.30041 11.8011H11.8371L5.84638 5.81768L11.4943 0.198894H8.04779L2.74275 4.85635L2.77883 0.198894H0V11.8011Z" fill="white"/>
<path d="M18.6556 12C22.5532 12 25.3862 9.29834 25.3862 6V5.96685C25.3862 2.66851 22.5893 0 18.6917 0C14.7941 0 11.9611 2.70166 11.9611 6V6.03315C11.9611 9.33149 14.758 12 18.6556 12ZM18.6917 9.64641C16.4542 9.64641 15.0543 7.98895 15.0543 6V5.96685C15.0543 3.9779 16.4181 2.35359 18.6556 2.35359C20.8931 2.35359 22.293 4.01105 22.293 6V6.03315C22.293 8.0221 20.9292 9.64641 18.6917 9.64641Z" fill="white"/>
<path d="M28.4078 9.48066L27.3326 11.8011H29.743H38.657H41.0674L39.9562 9.48066L35.6616 0.116022H32.7384L28.4078 9.48066ZM34.1639 2.9337L37.0691 9.58011H31.2588L32.7113 6.25691L34.1639 2.9337Z" fill="white"/>
<path d="M55.4346 11.8011V0.198894H52.782L46.9898 7.54144V0.198894H44.211V11.8011H46.665L52.6557 4.22652V11.8011H55.4346Z" fill="white"/>
<path d="M59.3689 11.8011H62.0936V4.27624L65.6123 8.60062H65.6845L69.2392 4.22652V11.8011H72V0.198894H69.0046L65.6845 4.52327L62.3643 0.198894H59.3689V11.8011Z" fill="white"/>
</svg>
