<svg width="195" height="35" viewBox="0 0 195 35" fill="none" xmlns="http://www.w3.org/2000/svg">
<path d="M0 34.4729V0.527107H8.79672V14.9172L24.9566 0.527107H35.0565L19.8741 14.2846L35.8385 34.4729H26.4553L14.4006 18.8178L8.79672 23.7199V34.4729H0Z" fill="white"/>
<path d="M59.3697 35C45.7728 35 38.9743 29.2194 38.9743 17.6581C38.9743 11.4383 40.6902 6.94026 44.1221 4.16415C47.5539 1.38805 52.6364 0 59.3697 0C66.103 0 71.1855 1.38805 74.6173 4.16415C78.0491 6.94026 79.7651 11.4383 79.7651 17.6581C79.7651 29.2194 72.9666 35 59.3697 35ZM59.3697 28.9383C63.3228 28.9383 66.2116 28.0246 68.0361 26.1973C69.904 24.3348 70.838 21.4885 70.838 17.6581C70.838 13.4061 69.904 10.4192 68.0361 8.69729C66.2116 6.94026 63.3228 6.06175 59.3697 6.06175C55.4166 6.06175 52.5061 6.94026 50.6381 8.69729C48.8136 10.4192 47.9014 13.4061 47.9014 17.6581C47.9014 21.4885 48.8136 24.3348 50.6381 26.1973C52.5061 28.0246 55.4166 28.9383 59.3697 28.9383Z" fill="white"/>
<path d="M88.5093 34.4729V0.527107H106.103C112.402 0.527107 117.137 1.84488 120.308 4.48042C123.522 7.08082 125.13 11.4734 125.13 17.6581C125.13 23.4915 123.544 27.761 120.373 30.4669C117.245 33.1376 112.489 34.4729 106.103 34.4729H88.5093ZM97.306 28.991H104.865C107.341 28.991 109.426 28.6923 111.12 28.0949C112.814 27.4623 114.074 26.3379 114.899 24.7214C115.768 23.0698 116.203 20.7154 116.203 17.6581C116.203 14.6009 115.812 12.2641 115.03 10.6476C114.248 9.03112 113.032 7.9242 111.381 7.32681C109.73 6.72942 107.558 6.43072 104.865 6.43072H97.306V28.991Z" fill="white"/>
<path d="M133.878 34.4729V0.527107H142.674V34.4729H133.878Z" fill="white"/>
<path d="M152.711 34.4729V0.527107H161.572L173.888 20.9262L186.203 0.527107H195V34.4729H186.203V12.387L176.429 28.622H171.347L161.507 12.387V34.4729H152.711Z" fill="white"/>
</svg>
