<svg width="34" height="34" viewBox="0 0 34 34" fill="none" xmlns="http://www.w3.org/2000/svg">
<path fill-rule="evenodd" clip-rule="evenodd" d="M23.5 16.4583L23.5 15.0417C23.5 10.6925 21.1767 7.05167 17.125 6.08833L17.125 5.125C17.125 3.94917 16.1758 3 15 3C13.8242 3 12.875 3.94917 12.875 5.125L12.875 6.08833C8.80917 7.05167 6.5 10.6783 6.5 15.0417L6.5 22.125L3.66667 24.9583L3.66667 26.375L15.1175 26.375C15.0402 25.9143 15 25.441 15 24.9583C15 20.2639 18.8056 16.4583 23.5 16.4583C23.5 16.4583 23.5 16.4583 23.5 16.4583ZM15.4837 27.7917L12.1667 27.7917C12.1667 29.35 13.4275 30.625 15 30.625C15.6355 30.625 16.2238 30.413 16.6978 30.0562C16.1854 29.3737 15.7734 28.6115 15.4837 27.7917Z" fill="#1F232C"/>
<path d="M30 24.9583C30 28.5482 27.0899 31.4583 23.5 31.4583C19.9101 31.4583 17 28.5482 17 24.9583C17 21.3685 19.9101 18.4583 23.5 18.4583C27.0899 18.4583 30 21.3685 30 24.9583Z" fill="#BF616A"/>
</svg>
