<svg width="34" height="34" viewBox="0 0 34 34" fill="none" xmlns="http://www.w3.org/2000/svg">
<path d="M17 31.1667C18.5584 31.1667 19.8334 29.8917 19.8334 28.3334H14.1667C14.1667 29.8917 15.4417 31.1667 17 31.1667ZM25.5 22.6667V15.5834C25.5 11.2342 23.1909 7.59335 19.125 6.63002V5.66669C19.125 4.49085 18.1759 3.54169 17 3.54169C15.8242 3.54169 14.875 4.49085 14.875 5.66669V6.63002C10.8234 7.59335 8.50002 11.22 8.50002 15.5834V22.6667L5.66669 25.5V26.9167H28.3334V25.5L25.5 22.6667ZM22.6667 24.0834H11.3334V15.5834C11.3334 12.07 13.4725 9.20835 17 9.20835C20.5275 9.20835 22.6667 12.07 22.6667 15.5834V24.0834Z" fill="#1F232C"/>
</svg>
