<svg width="34" height="34" viewBox="0 0 34 34" fill="none" xmlns="http://www.w3.org/2000/svg">
<path d="M17.0001 8.49999C22.3692 8.49999 27.1576 11.5175 29.4951 16.2917C28.6592 18.02 27.4834 19.5075 26.0809 20.7117L28.0784 22.7092C30.0476 20.9667 31.6059 18.785 32.5834 16.2917C30.1326 10.0725 24.0834 5.66666 17.0001 5.66666C15.2009 5.66666 13.4726 5.94999 11.8434 6.47416L14.1809 8.81166C15.1017 8.62749 16.0367 8.49999 17.0001 8.49999ZM15.4842 10.115L18.4167 13.0475C19.2242 13.4017 19.8759 14.0533 20.2301 14.8608L23.1626 17.7933C23.2759 17.3117 23.3609 16.8017 23.3609 16.2775C23.3751 12.7642 20.5134 9.91666 17.0001 9.91666C16.4759 9.91666 15.9801 9.98749 15.4842 10.115ZM2.84758 5.48249L6.64425 9.27916C4.33508 11.0925 2.50758 13.5008 1.41675 16.2917C3.86758 22.5108 9.91675 26.9167 17.0001 26.9167C19.1534 26.9167 21.2217 26.5058 23.1201 25.755L27.9651 30.6L29.9626 28.6025L4.84508 3.47083L2.84758 5.48249ZM13.4726 16.1075L17.1701 19.805C17.1134 19.8192 17.0567 19.8333 17.0001 19.8333C15.0451 19.8333 13.4584 18.2467 13.4584 16.2917C13.4584 16.2208 13.4726 16.1783 13.4726 16.1075ZM8.65591 11.2908L11.1351 13.77C10.8092 14.5492 10.6251 15.3992 10.6251 16.2917C10.6251 19.805 13.4867 22.6667 17.0001 22.6667C17.8926 22.6667 18.7426 22.4825 19.5076 22.1567L20.8959 23.545C19.6492 23.885 18.3459 24.0833 17.0001 24.0833C11.6309 24.0833 6.84258 21.0658 4.50508 16.2917C5.49675 14.2658 6.94175 12.5942 8.65591 11.2908Z" fill="url(#paint0_linear_74_481)"/>
<defs>
<linearGradient id="paint0_linear_74_481" x1="17.0001" y1="3.47083" x2="17.0001" y2="30.6" gradientUnits="userSpaceOnUse">
<stop stop-color="#1F232C"/>
<stop offset="1" stop-color="#3B4252"/>
</linearGradient>
</defs>
</svg>
