<svg width="195" height="35" viewBox="0 0 195 35" fill="none" xmlns="http://www.w3.org/2000/svg">
<path d="M0 34.4199H7.52601L7.42827 20.6423L22.4803 34.4199H32.0588L15.8339 16.9682L31.1303 0.580109H21.7961L7.42827 14.1644L7.52601 0.580109H0V34.4199Z" fill="white"/>
<path d="M50.5256 35C61.0816 35 68.7542 27.1202 68.7542 17.5V17.4033C68.7542 7.78315 61.1793 0 50.6234 0C40.0674 0 32.3948 7.87983 32.3948 17.5V17.5967C32.3948 27.2169 39.9697 35 50.5256 35ZM50.6234 28.1354C44.5635 28.1354 40.772 23.3011 40.772 17.5V17.4033C40.772 11.6022 44.4657 6.86464 50.5256 6.86464C56.5855 6.86464 60.377 11.6989 60.377 17.5V17.5967C60.377 23.3978 56.6833 28.1354 50.6234 28.1354Z" fill="white"/>
<path d="M76.9377 27.6519L74.0259 34.4199H80.5541H104.696H111.224L108.215 27.6519L96.5835 0.338396H88.6665L76.9377 27.6519ZM92.5273 8.55663L100.395 27.942H84.6591L88.5932 18.2493L92.5273 8.55663Z" fill="white"/>
<path d="M150.135 34.4199V0.580109H142.951L127.264 21.9959V0.580109H119.738V34.4199H126.384L142.609 12.3273V34.4199H150.135Z" fill="white"/>
<path d="M160.791 34.4199H168.17V12.4724L177.7 25.0851H177.895L187.523 12.3273V34.4199H195V0.580109H186.888L177.895 13.1929L168.903 0.580109H160.791V34.4199Z" fill="white"/>
</svg>
