<svg width="50" height="50" viewBox="0 0 50 50" fill="none" xmlns="http://www.w3.org/2000/svg">
<g clip-path="url(#clip0_242_549)">
<path d="M0 0H50V50H0V0Z" fill="#1F232C"/>
<path d="M30.4747 28.2877H29.3229L28.9147 27.8941C30.3435 26.232 31.2037 24.0742 31.2037 21.7268C31.2037 16.4927 26.961 12.25 21.7268 12.25C16.4927 12.25 12.25 16.4927 12.25 21.7268C12.25 26.961 16.4927 31.2037 21.7268 31.2037C24.0742 31.2037 26.232 30.3435 27.8941 28.9147L28.2877 29.3229V30.4747L35.5776 37.75L37.75 35.5776L30.4747 28.2877V28.2877ZM21.7268 28.2877C18.0965 28.2877 15.166 25.3572 15.166 21.7268C15.166 18.0965 18.0965 15.166 21.7268 15.166C25.3572 15.166 28.2877 18.0965 28.2877 21.7268C28.2877 25.3572 25.3572 28.2877 21.7268 28.2877Z" fill="white"/>
</g>
<defs>
<clipPath id="clip0_242_549">
<path d="M0 0H50V50H0V0Z" fill="white"/>
</clipPath>
</defs>
</svg>
