<svg width="34" height="34" viewBox="0 0 34 34" fill="none" xmlns="http://www.w3.org/2000/svg">
<path d="M25.5 11.3333H24.0833V8.49999C24.0833 4.58999 20.91 1.41666 17 1.41666C13.09 1.41666 9.91666 4.58999 9.91666 8.49999V11.3333H8.49999C6.94166 11.3333 5.66666 12.6083 5.66666 14.1667V28.3333C5.66666 29.8917 6.94166 31.1667 8.49999 31.1667H25.5C27.0583 31.1667 28.3333 29.8917 28.3333 28.3333V14.1667C28.3333 12.6083 27.0583 11.3333 25.5 11.3333ZM12.75 8.49999C12.75 6.14832 14.6483 4.24999 17 4.24999C19.3517 4.24999 21.25 6.14832 21.25 8.49999V11.3333H12.75V8.49999ZM25.5 28.3333H8.49999V14.1667H25.5V28.3333ZM17 24.0833C18.5583 24.0833 19.8333 22.8083 19.8333 21.25C19.8333 19.6917 18.5583 18.4167 17 18.4167C15.4417 18.4167 14.1667 19.6917 14.1667 21.25C14.1667 22.8083 15.4417 24.0833 17 24.0833Z" fill="#1F232C"/>
</svg>
