<svg width="34" height="34" viewBox="0 0 34 34" fill="none" xmlns="http://www.w3.org/2000/svg">
<path d="M17.0001 9.20833C22.3692 9.20833 27.1576 12.2258 29.4951 17C27.1576 21.7742 22.3834 24.7917 17.0001 24.7917C11.6167 24.7917 6.84258 21.7742 4.50508 17C6.84258 12.2258 11.6309 9.20833 17.0001 9.20833ZM17.0001 6.375C9.91675 6.375 3.86758 10.7808 1.41675 17C3.86758 23.2192 9.91675 27.625 17.0001 27.625C24.0834 27.625 30.1326 23.2192 32.5834 17C30.1326 10.7808 24.0834 6.375 17.0001 6.375ZM17.0001 13.2917C18.9551 13.2917 20.5417 14.8783 20.5417 16.8333C20.5417 18.7883 18.9551 20.375 17.0001 20.375C15.0451 20.375 13.4584 18.7883 13.4584 16.8333C13.4584 14.8783 15.0451 13.2917 17.0001 13.2917ZM17.0001 10.4583C13.4867 10.4583 10.6251 13.32 10.6251 16.8333C10.6251 20.3467 13.4867 23.2083 17.0001 23.2083C20.5134 23.2083 23.3751 20.3467 23.3751 16.8333C23.3751 13.32 20.5134 10.4583 17.0001 10.4583Z" fill="#1F232C"/>
</svg>
